<?xml version="1.0" encoding="utf-8" ?>
<svg xmlns="http://www.w3.org/2000/svg" xmlns:xlink="http://www.w3.org/1999/xlink" width="1024" height="1024">
	<path fill="#EDF2F4" d="M0 0L1024 0L1024 1024L0 1024L0 0Z"/>
	<path fill="#2B2D42" d="M510.298 148.696C510.696 148.845 510.906 148.886 511.243 149.225C513.509 151.497 519.874 162.679 522.029 166.011L553.937 215.1Q603.213 293.542 653.626 371.257C662.174 384.28 670.397 397.564 679.214 410.404C681.566 405.358 683.34 399.963 685.446 394.802C703.15 391.309 720.983 388.345 738.704 384.88C756.619 381.377 774.447 377.37 792.4 374.086C815.392 369.88 839.435 367.101 861.886 360.657C870.361 375.533 880.444 389.551 889.891 403.821C901.865 421.909 913.586 440.536 926.561 457.915C916.48 483.924 907.193 510.217 897.493 536.368L867.806 615.595C856.684 646.165 845.904 676.936 834.159 707.268Q803.812 712.443 773.581 718.259C768.771 713.269 763.084 708.761 757.92 704.094C746.454 693.735 735.05 683.433 724.116 672.503C727.26 679.039 731.513 685.146 735.372 691.284Q744.982 706.367 754.232 721.674C714.129 730.588 673.33 737.183 632.905 744.508C617.611 747.279 602.091 749.595 586.94 753.048L520.871 862.733Q516.976 869.424 512.831 875.962C490.931 842.74 470.814 808.315 448.94 775.092C418.205 781.467 387.163 786.555 356.284 792.202C343.209 794.593 329.7 796.48 316.822 799.704C326.385 785.316 335.579 770.392 345.987 756.602C342.507 752.059 339.755 746.482 336.862 741.516C330.74 749.604 325.401 758.241 319.69 766.621C311.369 778.832 302.777 790.91 295.137 803.565C269.366 808.439 243.384 812.57 217.694 817.785C211.964 814.122 206.612 809.645 201.24 805.481Q189.952 796.759 178.561 788.174C160.255 774.334 141.184 761.388 123.866 746.287C129.934 737.593 135.321 728.42 141.054 719.503Q158.315 693.008 175.255 666.306L249.259 552.084L422.552 284.199C427.173 277.046 432.101 270.097 436.747 262.961Q473.853 206.041 510.298 148.696Z"/>
	<path fill="#DEDEDE" d="M522.054 377.312C525.204 382.263 532.558 408.181 535.708 416.202C529.159 417.56 522.641 419.153 516.116 420.63Q510.541 421.873 504.919 422.878C509.994 407.45 516.084 392.409 522.054 377.312Z"/>
	<path fill="#EDF2F4" d="M355.722 613.441C359.514 612.889 363.334 612.408 367.072 611.559C364.046 620.878 360.113 629.942 356.496 639.047C351.463 651.721 346.548 664.461 341.365 677.074C337.936 685.421 333.126 694.124 331.047 702.87C327.011 703.919 322.782 704.385 318.661 705.006C323.698 693.053 327.998 680.871 332.89 668.875C340.435 650.374 348.479 632.061 355.722 613.441Z"/>
	<path fill="#7B8595" d="M577.126 356.535C578.353 357.064 579.217 357.625 580.179 358.565C588.86 367.049 596.676 376.776 604.86 385.747Q624.72 407.181 644.945 428.272C651.251 434.933 657.197 442.001 663.675 448.486C662.922 451.604 661.243 454.923 660.096 457.944C657.919 463.677 655.929 469.494 653.507 475.13C645.765 465.138 638.095 451.763 630.902 440.967C612.457 413.284 593.778 385.338 577.126 356.535Z"/>
	<path fill="#7B8595" d="M576.772 461.906C582.789 465.37 587.601 471.841 592.55 476.657C605.945 489.695 624.226 506.369 635.766 520.61C634.05 525.8 631.728 530.923 629.745 536.027Q624.046 550.698 618.963 565.593C614.375 556.295 610.761 546.539 606.888 536.932C602.262 525.458 597.438 514.077 592.904 502.563C587.573 489.027 581.481 475.666 576.772 461.906Z"/>
	<path fill="#EDF2F4" d="M495.358 445.262C500.35 443.785 541.555 435.338 543.663 436.275L544.151 438.445C537.624 449.066 531.986 460.326 525.943 471.232C503.64 511.487 483.146 552.706 461.65 593.394C452.293 611.104 443.039 629.038 432.964 646.343C424.93 660.143 415.828 673.595 408.439 687.741C407.664 687.956 407.21 687.946 406.419 687.912C406.332 687.623 406.169 687.347 406.157 687.045C406.112 685.868 422.645 640.475 424.185 636.242C428.093 625.506 432.525 614.982 436.567 604.297L462.099 535.52C473.275 505.485 483.823 475.149 495.358 445.262Z"/>
	<path fill="#EDF2F4" d="M700.218 412.648C714.177 410.896 727.969 407.55 741.768 404.867L807.181 392.407C818.452 390.233 829.967 387.116 841.365 385.984C833.954 391.805 826.336 397.361 818.87 403.113C811.358 408.901 803.247 416.398 794.744 420.493C789.941 422.806 783.798 423.643 778.599 424.802Q759.891 428.985 741.057 432.559C734.423 433.879 727.226 434.784 720.803 436.874C716.623 444.061 713.382 452.04 709.915 459.608Q701.745 477.565 693.258 495.374C672.499 539.099 651.258 582.622 625.89 623.897C622.356 629.648 615.018 644.384 611.356 648.302C631.532 586.282 655.846 525.381 679.636 464.669C686.444 447.295 693.681 430.134 700.218 412.648Z"/>
	<defs>
		<linearGradient id="gradient_0" gradientUnits="userSpaceOnUse" x1="560.17969" y1="753.18561" x2="443.2117" y2="685.20813">
			<stop offset="0" stop-color="#88909E"/>
			<stop offset="1" stop-color="#CFD2D6"/>
		</linearGradient>
	</defs>
	<path fill="url(#gradient_0)" d="M430.79 704.156C450.516 699.192 471.004 696.172 491.013 692.511L569.075 677.714C582.265 675.285 595.623 673.59 608.664 670.436C595.679 695.386 581.152 719.642 566.554 743.672C561.803 751.492 557.872 759.911 552.697 767.455C549.27 775.156 541.678 785.502 537.148 793.236C529.29 806.652 522.46 821.361 513.457 834.012L512.933 835.142C511.607 834.569 510.959 833.417 510.154 832.247C508.852 830.354 507.894 828.238 506.637 826.315C497.541 812.411 488.972 798.285 480.239 784.153L430.79 704.156Z"/>
	<path fill="#7B8595" d="M549.318 718.503C549.28 718.98 549.35 719.478 549.204 719.934C548.802 721.195 518.178 758.579 513.656 764.523Q513.401 785.82 513.605 807.116L514.681 807.273C514.841 808.441 514.863 809.492 514.811 810.67L515.882 811.094C516.319 813.138 516.036 815.751 514.887 817.549C514.716 817.815 514.516 818.061 514.34 818.323C512.613 820.893 513.472 828.621 513.546 831.68C521.157 822.542 547.262 769.458 552.697 767.455C549.27 775.156 541.678 785.502 537.148 793.236C529.29 806.652 522.46 821.361 513.457 834.012C512.74 828.097 513.126 821.732 513.12 815.766L513.206 780.917C513.219 775.663 513.772 769.576 512.782 764.429C516.642 757.388 523.043 750.503 528.114 744.278C535.134 735.661 542.07 726.927 549.318 718.503Z"/>
	<path fill="#EDF2F4" d="M518.79 717.999C526.614 714.932 534.167 710.804 541.731 707.139C550.469 702.906 559.347 698.946 568.122 694.784C561.785 702.556 555.074 710.292 549.318 718.503C542.07 726.927 535.134 735.661 528.114 744.278C523.043 750.503 516.642 757.388 512.782 764.429C510.254 762.138 508.03 758.529 505.926 755.799Q496.719 743.888 487.875 731.704C481.791 723.48 475.164 715.652 469.286 707.279C484.332 711.549 503.368 715.219 518.79 717.999Z"/>
	<path fill="#DEDEDE" d="M544.151 438.445Q549.348 453.294 553.914 468.349C548.49 482.495 542.404 496.385 536.547 510.356L514.758 562.832Q508.437 578.08 502.277 593.393C499.366 600.613 496.652 608.087 493.029 614.981C506.971 612.907 520.878 609.509 534.704 606.725Q571.869 599.416 609.104 592.478C606.966 598.54 601.237 617.364 598.386 621.563C594.423 632.383 590.923 643.757 586.073 654.19Q497.05 669.871 408.439 687.741C415.828 673.595 424.93 660.143 432.964 646.343C443.039 629.038 452.293 611.104 461.65 593.394C483.146 552.706 503.64 511.487 525.943 471.232C531.986 460.326 537.624 449.066 544.151 438.445Z"/>
	<path fill="#EDF2F4" d="M493.029 614.981C506.971 612.907 520.878 609.509 534.704 606.725Q571.869 599.416 609.104 592.478C606.966 598.54 601.237 617.364 598.386 621.563C583.646 624.853 568.593 627.117 553.745 629.91C535.419 633.357 517.194 637.314 498.888 640.86C479.943 644.531 460.951 647.807 442.11 652.029C452.287 644.195 487.862 622.337 493.029 614.981Z"/>
	<defs>
		<linearGradient id="gradient_1" gradientUnits="userSpaceOnUse" x1="729.29578" y1="645.53003" x2="722.6922" y2="392.50943">
			<stop offset="0" stop-color="#C5C5C5"/>
			<stop offset="1" stop-color="#E6E6E6"/>
		</linearGradient>
	</defs>
	<path fill="url(#gradient_1)" d="M841.365 385.984C840.251 392.494 836.796 399.479 834.525 405.718Q829.111 420.82 823.989 436.023Q803.78 493.098 782.768 549.882Q772.667 578.096 762.171 606.166C759.986 611.983 758.044 617.959 755.7 623.703C742.93 625.103 730.389 628.039 717.79 630.487C710.617 631.881 702.736 633.548 695.429 633.691C697.124 627.002 700.621 620.132 703.18 613.668C707.5 602.753 711.553 591.761 715.673 580.771C729.49 543.914 742.29 506.428 757.443 470.098C770.793 463.849 784.605 453.101 797.134 445.063C791.684 445.249 785.577 447.343 780.19 448.56C766.461 451.659 752.46 454.5 739.022 458.704C736.311 464.492 734.356 470.782 732.152 476.787L721.966 503.994L690.263 589.741C684.268 606.108 678.532 622.584 672.078 638.78C665.272 640.382 614.904 651.121 610.908 649.796C610.783 648.737 610.669 649.244 611.356 648.302C615.018 644.384 622.356 629.648 625.89 623.897C651.258 582.622 672.499 539.099 693.258 495.374Q701.745 477.565 709.915 459.608C713.382 452.04 716.623 444.061 720.803 436.874C727.226 434.784 734.423 433.879 741.057 432.559Q759.891 428.985 778.599 424.802C783.798 423.643 789.941 422.806 794.744 420.493C803.247 416.398 811.358 408.901 818.87 403.113C826.336 397.361 833.954 391.805 841.365 385.984Z"/>
	<path fill="#EDF2F4" d="M797.134 445.063Q799.56 443.83 802.009 442.644C786.829 465.203 775.691 489.991 762.979 513.942C747.996 542.173 731.961 569.856 716.334 597.737C711.763 605.893 701.047 628.034 695.429 633.691C697.124 627.002 700.621 620.132 703.18 613.668C707.5 602.753 711.553 591.761 715.673 580.771C729.49 543.914 742.29 506.428 757.443 470.098C770.793 463.849 784.605 453.101 797.134 445.063Z"/>
	<defs>
		<linearGradient id="gradient_2" gradientUnits="userSpaceOnUse" x1="165.05647" y1="548.47021" x2="653.70514" y2="391.93674">
			<stop offset="0" stop-color="#8D99AE"/>
			<stop offset="1" stop-color="#CCD0D6"/>
		</linearGradient>
	</defs>
	<path fill="url(#gradient_2)" d="M511.265 187.742C518.406 196.696 524.44 207.241 530.291 217.066C536.251 225.702 541.411 234.934 547.104 243.757L601.868 329.78L650.77 406.615C656.779 416.192 663.35 425.518 668.971 435.322C667.409 439.793 665.527 444.129 663.675 448.486C657.197 442.001 651.251 434.933 644.945 428.272Q624.72 407.181 604.86 385.747C596.676 376.776 588.86 367.049 580.179 358.565C579.217 357.625 578.353 357.064 577.126 356.535L568.695 344.454C575.124 363.457 584.988 383.679 593.381 402.039C608.651 435.444 623.983 469.77 644.071 500.598L635.766 520.61C624.226 506.369 605.945 489.695 592.55 476.657C587.601 471.841 582.789 465.37 576.772 461.906C574.107 456.922 572.398 451.231 570.48 445.921L561.223 420.206C548.133 383.707 535.949 346.895 523.443 310.194C510.801 340.798 500.257 372.453 488.883 403.556L440.112 535.016L401.983 637.042C394.846 655.739 386.835 674.406 380.433 693.348L348.306 699.458C342.599 700.581 336.795 702.063 331.047 702.87C333.126 694.124 337.936 685.421 341.365 677.074C346.548 664.461 351.463 651.721 356.496 639.047C360.113 629.942 364.046 620.878 367.072 611.559C363.334 612.408 359.514 612.889 355.722 613.441C350.186 613.514 344.433 614.989 339.008 616.062C325.85 618.662 309.916 622.791 296.88 624.168C290.935 626.203 284.156 626.7 278.02 628.248C272.778 637.445 268.598 647.576 264.052 657.156L244.569 697.504C240.893 705.307 237.621 713.425 233.349 720.921Q216.454 724.41 199.476 727.473C191.588 728.844 183.482 729.734 175.768 731.894Q166.487 733.715 157.275 735.855C161.25 728.469 166.126 721.363 170.616 714.264C181.821 696.545 193.555 679.184 204.863 661.535L320.197 483.646L441.508 296.115L488.697 222.485C496.159 210.934 503.092 198.795 511.265 187.742Z"/>
	<path fill="#7B8595" d="M260.469 601.195C272.348 598.699 284.597 596.553 296.603 594.754L297.341 595.271C293.772 596.438 289.821 596.74 286.118 597.394L268.711 600.628C266.761 600.984 263.752 601.094 262.017 601.936C260.43 602.706 215.151 671.509 211.702 678.199L211.96 679.136C213.246 679.695 213.417 679.694 214.807 679.477C215.549 677.367 213.243 675.951 215.334 674.3C216.24 673.584 216.66 672.82 217.261 671.854C218.181 672.434 218.125 672.665 218.341 673.695C220.075 681.933 216.924 690.589 218.464 698.935C219.026 701.978 221.012 703.709 221.806 706.594C222.04 707.442 221.912 707.063 222.362 707.991C220.574 707.652 218.862 707.201 217.119 706.678L217.59 707.799L216.366 706.578C216.053 707.642 216.414 709.052 217.029 709.982C217.922 711.335 219.58 712.016 221.152 712.114C222.175 712.178 223.216 712.128 224.24 712.093C224.677 713.001 225.014 713.864 225.322 714.819C225.589 715.646 225.841 716.18 226.353 716.877C226.918 717.643 227.041 717.91 227.158 718.83L228.044 718.916C227.722 720.064 226.177 720.345 226.549 721.297C228.483 721.234 230.366 720.672 232.239 720.219C237.186 714.095 240.664 703.39 244.112 696.056C247.462 688.931 275.888 628.656 277.581 627.48C279.281 626.299 292.57 623.971 295.416 623.63C295.75 623.59 296.085 623.57 296.42 623.54L296.88 624.168C290.935 626.203 284.156 626.7 278.02 628.248C272.778 637.445 268.598 647.576 264.052 657.156L244.569 697.504C240.893 705.307 237.621 713.425 233.349 720.921Q216.454 724.41 199.476 727.473C191.588 728.844 183.482 729.734 175.768 731.894C177.802 727.404 181.238 722.942 183.948 718.82L199.281 695.475C205.219 686.352 210.696 676.929 216.691 667.851C231.32 645.695 246.52 623.778 260.469 601.195Z"/>
	<path fill="#EDF2F4" d="M511.265 187.742C518.406 196.696 524.44 207.241 530.291 217.066L433.521 363.705C417.446 388.19 401.922 413.132 385.281 437.232Q354.091 482.414 322.074 527.013L299.755 558.244C294.979 564.991 289.944 571.718 285.839 578.899L326.035 571.105C333.548 561.516 339.744 550.326 346.246 540.005C360.865 516.802 374.909 493.326 389.25 469.96C409.127 437.574 430.447 408.308 451.749 377.113C453.976 373.851 463.262 357.621 465.233 356.519C473.538 344.664 478.014 329.997 485.14 317.446C481.734 328.695 476.427 339.338 472.365 350.362Q456.815 393.305 440.711 436.043C437.47 444.703 434.633 453.494 431.448 462.171Q416.519 503.192 400.04 543.615C395.415 554.844 391.194 566.466 385.775 577.33C363.863 582.009 341.889 585.804 319.894 590.015C314.363 591.074 301.247 592.836 296.603 594.754C284.597 596.553 272.348 598.699 260.469 601.195C246.52 623.778 231.32 645.695 216.691 667.851C210.696 676.929 205.219 686.352 199.281 695.475L183.948 718.82C181.238 722.942 177.802 727.404 175.768 731.894Q166.487 733.715 157.275 735.855C161.25 728.469 166.126 721.363 170.616 714.264C181.821 696.545 193.555 679.184 204.863 661.535L320.197 483.646L441.508 296.115L488.697 222.485C496.159 210.934 503.092 198.795 511.265 187.742Z"/>
	<path fill="#2B2D42" d="M326.035 571.105C333.548 561.516 339.744 550.326 346.246 540.005C360.865 516.802 374.909 493.326 389.25 469.96C409.127 437.574 430.447 408.308 451.749 377.113C453.976 373.851 463.262 357.621 465.233 356.519C461.555 365.252 456.698 373.561 452.636 382.132C441.856 404.878 431.083 427.738 420.726 450.678C404.353 486.942 390.31 524.345 374.157 560.737C366.907 563.223 358.808 564.199 351.273 565.625Q338.586 568.053 326.035 571.105Z"/>
</svg>
